<?xml version="1.0" encoding="UTF-8"?>
<svg enable-background="new 0 0 32.6 40.2" version="1.1" viewBox="0 0 32.6 40.2" xml:space="preserve" xmlns="http://www.w3.org/2000/svg" xmlnsXlink="http://www.w3.org/1999/xlink">
<style type="text/css">
	.st0{fill:none;stroke:#959595;stroke-width:2.2778;stroke-linecap:round;stroke-linejoin:round;stroke-miterlimit:1.002;}
	.st1{fill:none;stroke:#959595;stroke-width:2.2825;stroke-linecap:round;stroke-linejoin:round;stroke-miterlimit:10;}
</style>
	<g transform="matrix(.32415 0 0 .32415 -1979.9 -362.98)">

		<g transform="matrix(1.4654 0 0 1.4654 -1969.4 -861.26)">
			<path class="st0" d="m5535.5 1381.1c-3.1 0-6 1.2-8.2 3.4s-3.4 5.1-3.4 8.2v17.5c0 8.2 6.6 14.8 14.8 14.8h14.2c8.2 0 14.8-6.6 14.8-14.8v-18.1c0-6.1-4.9-11-11-11"/>
		</g>
		<g transform="matrix(1.4388 0 0 1.4388 -1793.8 -812.5)">
			<path class="st1" d="m5526.3 1395.1v-41.7"/>
		</g>
		<g transform="matrix(1.4388 0 0 1.4388 -1793.8 -812.89)">
			<path class="st1" d="m5526.3 1353.3-10.3 10.3"/>
		</g>
		<g transform="matrix(-1.4388 0 0 1.4388 17381 -812.85)">
			<path class="st1" d="m7800.1 1353.3-10.3 10.3"/>
		</g>

</g>
</svg>
